<?xml version="1.0" encoding="UTF-8" standalone="no"?>
<!-- Created with Inkscape (http://www.inkscape.org/) -->

<svg
   xmlns:osb="http://www.openswatchbook.org/uri/2009/osb"
   xmlns:dc="http://purl.org/dc/elements/1.1/"
   xmlns:cc="http://creativecommons.org/ns#"
   xmlns:rdf="http://www.w3.org/1999/02/22-rdf-syntax-ns#"
   xmlns:svg="http://www.w3.org/2000/svg"
   xmlns="http://www.w3.org/2000/svg"
   xmlns:sodipodi="http://sodipodi.sourceforge.net/DTD/sodipodi-0.dtd"
   xmlns:inkscape="http://www.inkscape.org/namespaces/inkscape"
   width="210mm"
   height="297mm"
   viewBox="0 0 744.09448819 1052.3622047"
   id="svg4333"
   version="1.1"
   inkscape:version="0.91 r13725"
   sodipodi:docname="hist1.svg"
   inkscape:export-filename="/home/ward/Documents/PhD Thesis/Document/appendix/img/hist1.png"
   inkscape:export-xdpi="341.88501"
   inkscape:export-ydpi="341.88501">
  <defs
     id="defs4335">
    <marker
       inkscape:stockid="Arrow1Lstart"
       orient="auto"
       refY="0.0"
       refX="0.0"
       id="Arrow1Lstart"
       style="overflow:visible"
       inkscape:isstock="true">
      <path
         id="path4968"
         d="M 0.0,0.0 L 5.0,-5.0 L -12.5,0.0 L 5.0,5.0 L 0.0,0.0 z "
         style="fill-rule:evenodd;stroke:#000000;stroke-width:1pt;stroke-opacity:1;fill:#000000;fill-opacity:1"
         transform="scale(0.8) translate(12.5,0)" />
    </marker>
    <linearGradient
       id="linearGradient7104"
       osb:paint="solid">
      <stop
         style="stop-color:#13c835;stop-opacity:1;"
         offset="0"
         id="stop7106" />
    </linearGradient>
    <marker
       inkscape:stockid="Arrow1Mend"
       orient="auto"
       refY="0.0"
       refX="0.0"
       id="Arrow1Mend"
       style="overflow:visible;"
       inkscape:isstock="true">
      <path
         id="path4977"
         d="M 0.0,0.0 L 5.0,-5.0 L -12.5,0.0 L 5.0,5.0 L 0.0,0.0 z "
         style="fill-rule:evenodd;stroke:#000000;stroke-width:1pt;stroke-opacity:1;fill:#000000;fill-opacity:1"
         transform="scale(0.4) rotate(180) translate(10,0)" />
    </marker>
    <marker
       inkscape:stockid="Arrow1Lend"
       orient="auto"
       refY="0.0"
       refX="0.0"
       id="marker5312"
       style="overflow:visible;"
       inkscape:isstock="true">
      <path
         id="path5314"
         d="M 0.0,0.0 L 5.0,-5.0 L -12.5,0.0 L 5.0,5.0 L 0.0,0.0 z "
         style="fill-rule:evenodd;stroke:#000000;stroke-width:1pt;stroke-opacity:1;fill:#000000;fill-opacity:1"
         transform="scale(0.8) rotate(180) translate(12.5,0)" />
    </marker>
    <marker
       inkscape:stockid="Arrow1Lend"
       orient="auto"
       refY="0.0"
       refX="0.0"
       id="Arrow1Lend"
       style="overflow:visible;"
       inkscape:isstock="true">
      <path
         id="path4971"
         d="M 0.0,0.0 L 5.0,-5.0 L -12.5,0.0 L 5.0,5.0 L 0.0,0.0 z "
         style="fill-rule:evenodd;stroke:#000000;stroke-width:1pt;stroke-opacity:1;fill:#000000;fill-opacity:1"
         transform="scale(0.8) rotate(180) translate(12.5,0)" />
    </marker>
  </defs>
  <sodipodi:namedview
     id="base"
     pagecolor="#ffffff"
     bordercolor="#666666"
     borderopacity="1.0"
     inkscape:pageopacity="0.0"
     inkscape:pageshadow="2"
     inkscape:zoom="1.979899"
     inkscape:cx="342.37005"
     inkscape:cy="693.77766"
     inkscape:document-units="px"
     inkscape:current-layer="layer1"
     showgrid="false"
     inkscape:window-width="1920"
     inkscape:window-height="1056"
     inkscape:window-x="0"
     inkscape:window-y="24"
     inkscape:window-maximized="1" />
  <metadata
     id="metadata4338">
    <rdf:RDF>
      <cc:Work
         rdf:about="">
        <dc:format>image/svg+xml</dc:format>
        <dc:type
           rdf:resource="http://purl.org/dc/dcmitype/StillImage" />
        <dc:title />
      </cc:Work>
    </rdf:RDF>
  </metadata>
  <g
     inkscape:groupmode="layer"
     id="layer2"
     inkscape:label="Layer 2"
     style="display:inline">
    <path
       style="opacity:0.49000005;fill:none;fill-opacity:1;fill-rule:nonzero;stroke:#f50a0a;stroke-width:0;stroke-miterlimit:4;stroke-dasharray:none;stroke-dashoffset:0;stroke-opacity:1"
       d="m 195.69691,447.51066 c 0.19261,-9.10714 0.50474,-12.67788 2.05265,-23.48214 5.03961,-35.17579 17.47048,-67.38454 34.93666,-90.52196 14.08594,-18.6596 29.29503,-29.77349 45.80212,-33.46941 3.25362,-0.72848 4.62517,-0.82822 11.20732,-0.81502 6.93788,0.0139 7.82078,0.0903 11.77998,1.0188 12.33577,2.89303 23.67593,9.06019 34.36189,18.68713 1.00649,0.90674 9.19758,13.20223 24.92998,37.42188 l 23.43097,36.07143 4.89145,5.18599 4.89144,5.18598 5.70049,20.61354 c 3.13526,11.33744 5.81225,20.49482 5.94886,20.34972 0.13661,-0.14509 2.30116,-6.5612 4.8101,-14.25803 l 4.56172,-13.99423 2.52513,2.1574 2.52513,2.1574 3.26818,8.62254 c 1.7975,4.7424 3.40464,8.55146 3.57143,8.46458 0.16678,-0.0869 2.09801,-7.13164 4.29161,-15.65503 2.1936,-8.52338 4.04497,-15.55367 4.11416,-15.62286 0.0692,-0.0692 1.45315,5.8099 3.07548,13.06463 l 2.94968,13.19042 4.32039,7.94755 c 2.37622,4.37115 4.55527,8.32491 4.84234,8.78613 0.51804,0.83232 0.53655,0.81767 2.48051,-1.96429 1.07721,-1.54158 2.09974,-3.04394 2.27226,-3.33858 0.24886,-0.42499 1.00024,0.13511 3.63526,2.70977 1.82686,1.78502 5.00906,4.74143 7.07156,6.56981 2.0625,1.82837 3.98533,3.54201 4.27296,3.80808 0.43997,0.407 -21.31692,0.48377 -137.09851,0.48377 l -137.62148,0 0.19828,-9.375 z"
       id="path4956"
       inkscape:connector-curvature="0" />
    <path
       style="display:inline;fill:#19d93c;fill-rule:evenodd;stroke:#19d93b;stroke-width:1px;stroke-linecap:butt;stroke-linejoin:miter;stroke-opacity:0.52941179;fill-opacity:0.52941179"
       d="m 194.45437,456.87728 c 0,0 -1.51523,-83.84266 47.47716,-135.36044 48.9924,-51.51778 95.9645,-1.51523 95.9645,-1.51523 l 46.97209,72.22591 9.59645,10.10152 11.11168,39.90103 9.09137,-27.7792 6.06092,5.05076 6.06091,16.16245 8.5863,-33.33504 6.56599,29.29443 9.09137,16.66751 4.54569,-6.56599 6.56599,6.56599 9.72272,8.71257"
       id="path4932"
       inkscape:connector-curvature="0"
       inkscape:export-xdpi="341.88501"
       inkscape:export-ydpi="341.88501" />
  </g>
  <g
     inkscape:label="Layer 1"
     inkscape:groupmode="layer"
     id="layer1"
     style="display:inline">
    <path
       style="fill:none;fill-rule:evenodd;stroke:#000000;stroke-width:0.907;stroke-linecap:butt;stroke-linejoin:miter;stroke-opacity:1;stroke-miterlimit:4;stroke-dasharray:none;marker-start:url(#Arrow1Lstart)"
       d="m 194.93624,242.24098 0,215.20898 276.82828,0"
       id="path4881"
       inkscape:connector-curvature="0" />
    <path
       style="fill-rule:evenodd;fill-opacity:0.81568629;opacity:0.646;fill:#d91927;stroke:#ff0002;stroke-opacity:1"
       d="m 364.94993,456.5669 c 0,0 39.72531,-155.21004 85.83503,-78.81131 46.10973,76.39872 45.75504,79.61551 45.75504,79.61551"
       id="path4960"
       inkscape:connector-curvature="0" />
    <path
       style="fill:#000000;fill-opacity:1;fill-rule:evenodd;stroke:#000000;stroke-width:1;stroke-linecap:butt;stroke-linejoin:miter;stroke-miterlimit:4;stroke-dasharray:none;stroke-opacity:1;marker-end:url(#marker5312)"
       d="m 470.44643,457.3622 36.07143,0"
       id="path4962"
       inkscape:connector-curvature="0" />
    <text
       xml:space="preserve"
       style="font-style:normal;font-weight:normal;font-size:16.25px;line-height:125%;font-family:sans-serif;letter-spacing:0px;word-spacing:0px;fill:#483737;fill-opacity:1;stroke:none;stroke-width:1px;stroke-linecap:butt;stroke-linejoin:miter;stroke-opacity:1;"
       x="239.40614"
       y="367.98383"
       id="text7218"
       sodipodi:linespacing="125%"><tspan
         sodipodi:role="line"
         id="tspan7220"
         x="239.40614"
         y="367.98383">Background</tspan></text>
    <text
       xml:space="preserve"
       style="font-style:normal;font-weight:normal;font-size:16.25px;line-height:125%;font-family:sans-serif;letter-spacing:0px;word-spacing:0px;display:inline;fill:#483737;fill-opacity:1;stroke:none;stroke-width:1px;stroke-linecap:butt;stroke-linejoin:miter;stroke-opacity:1"
       x="399.43115"
       y="388.12427"
       id="text7218-3"
       sodipodi:linespacing="125%"><tspan
         sodipodi:role="line"
         id="tspan7220-6"
         x="399.43115"
         y="388.12427">Signal</tspan></text>
    <text
       xml:space="preserve"
       style="font-style:normal;font-weight:normal;font-size:40px;line-height:125%;font-family:sans-serif;letter-spacing:0px;word-spacing:0px;fill:#000000;fill-opacity:1;stroke:none;stroke-width:1px;stroke-linecap:butt;stroke-linejoin:miter;stroke-opacity:1"
       x="312.13712"
       y="475.06003"
       id="text4177"
       sodipodi:linespacing="125%"><tspan
         sodipodi:role="line"
         id="tspan4179"
         x="312.13712"
         y="475.06003"></tspan></text>
    <text
       xml:space="preserve"
       style="font-style:normal;font-weight:normal;font-size:16.25px;line-height:125%;font-family:sans-serif;letter-spacing:0px;word-spacing:0px;display:inline;fill:#483737;fill-opacity:1;stroke:none;stroke-width:1px;stroke-linecap:butt;stroke-linejoin:miter;stroke-opacity:1"
       x="299.93115"
       y="475.50244"
       id="text7218-36"
       sodipodi:linespacing="125%"><tspan
         sodipodi:role="line"
         id="tspan7220-7"
         x="299.93115"
         y="475.50244">BDT score</tspan></text>
  </g>
</svg>
